<?xml version="1.0" standalone="no"?>
<!DOCTYPE svg PUBLIC "-//W3C//DTD SVG 20010904//EN"
 "http://www.w3.org/TR/2001/REC-SVG-20010904/DTD/svg10.dtd">
<svg version="1.0" xmlns="http://www.w3.org/2000/svg"
 width="822.000000pt" height="822.000000pt" viewBox="0 0 822.000000 822.000000"
 preserveAspectRatio="xMidYMid meet">
<metadata>
Created by potrace 1.11, written by Peter Selinger 2001-2013
</metadata>
<g transform="translate(0.000000,822.000000) scale(0.100000,-0.100000)"
fill="#000000" stroke="none">
<path d="M2284 8090 c3 -8 8 -26 10 -40 3 -14 10 -47 16 -75 5 -27 13 -61 15
-75 3 -14 8 -38 12 -55 3 -16 7 -37 8 -45 1 -8 10 -51 19 -95 10 -44 20 -90
22 -102 5 -30 12 -62 18 -93 3 -14 13 -59 21 -100 8 -41 18 -86 20 -100 22
-103 27 -127 30 -145 1 -11 7 -40 13 -65 6 -25 13 -58 16 -75 3 -16 8 -41 11
-55 3 -14 8 -38 10 -55 3 -16 8 -37 10 -45 4 -16 14 -62 19 -95 2 -11 6 -31
10 -45 3 -14 8 -36 10 -50 2 -14 17 -83 32 -155 15 -71 28 -142 29 -156 1 -14
4 -30 7 -35 3 -5 9 -27 12 -49 4 -22 9 -49 13 -60 3 -11 7 -31 9 -45 1 -14 3
-26 4 -27 3 -4 5 -11 14 -63 13 -71 16 -84 21 -107 3 -13 7 -33 10 -45 2 -13
9 -43 15 -68 12 -55 19 -94 26 -139 2 -19 7 -37 9 -41 3 -4 7 -25 11 -45 3
-21 8 -47 10 -59 3 -11 7 -32 10 -46 2 -14 14 -67 24 -117 11 -51 20 -97 20
-102 0 -5 -53 -10 -117 -11 -200 -3 -528 -9 -528 -11 0 -1 -166 -5 -1025 -24
-113 -3 -296 -7 -408 -9 -111 -3 -206 -8 -211 -11 -6 -3 -12 -1 -16 5 -4 6
-11 8 -16 4 -6 -3 -121 -8 -257 -11 -136 -3 -249 -7 -251 -9 -2 -2 5 -7 15
-11 10 -3 22 -11 25 -15 3 -5 12 -10 20 -12 8 -1 23 -7 34 -13 31 -17 310
-160 605 -310 146 -75 355 -182 465 -238 319 -163 874 -446 1075 -547 102 -51
187 -96 190 -99 3 -3 23 -14 45 -24 22 -10 42 -20 43 -21 5 -3 -120 -168 -130
-172 -5 -2 -8 -8 -8 -13 0 -6 -13 -24 -30 -42 -16 -18 -30 -37 -30 -44 0 -6
-4 -13 -8 -15 -5 -1 -37 -41 -72 -88 -36 -47 -67 -87 -70 -90 -3 -3 -61 -79
-130 -170 -68 -91 -130 -171 -137 -178 -7 -7 -13 -16 -13 -20 0 -4 -13 -21
-28 -39 -15 -18 -38 -48 -52 -68 -14 -19 -34 -46 -45 -60 -26 -31 -31 -39
-179 -235 -68 -91 -130 -172 -138 -180 -7 -8 -31 -40 -53 -70 -22 -30 -50 -66
-62 -80 -13 -14 -23 -28 -23 -32 0 -3 -6 -13 -13 -20 -7 -7 -26 -31 -42 -53
-17 -22 -35 -46 -42 -55 -7 -8 -82 -107 -167 -220 -85 -113 -159 -209 -163
-215 -48 -60 -75 -97 -72 -99 2 -2 29 8 59 22 30 13 78 35 105 47 28 13 79 36
115 53 36 16 88 40 115 52 28 13 78 36 113 51 34 16 64 29 67 28 3 0 22 9 43
19 75 40 193 92 207 92 7 0 15 5 17 11 2 5 10 11 18 13 8 1 29 10 47 19 18 9
39 17 48 17 8 0 15 5 15 10 0 6 5 10 11 10 5 0 31 10 57 21 26 12 74 34 107
49 33 15 81 37 107 49 26 11 52 21 57 21 6 0 11 4 11 10 0 5 3 9 8 8 4 -1 21
5 37 12 17 7 32 14 35 15 3 1 30 13 60 27 132 62 155 72 163 70 4 -1 7 3 7 8
0 5 3 9 8 8 9 -2 34 9 132 55 41 20 147 68 235 107 219 99 295 133 453 206
123 57 124 57 135 9 5 -22 11 -47 14 -55 3 -8 7 -22 9 -30 2 -8 15 -60 29
-115 14 -55 28 -111 31 -125 3 -14 12 -47 19 -74 8 -27 13 -52 10 -54 -3 -3 0
-11 6 -19 6 -7 8 -13 4 -13 -4 0 -2 -7 5 -15 7 -9 10 -18 7 -22 -4 -3 -2 -12
4 -20 6 -7 9 -13 6 -13 -3 0 -1 -15 5 -32 5 -18 11 -46 14 -61 2 -15 8 -35 13
-45 5 -9 9 -20 10 -25 1 -24 15 -84 21 -97 5 -8 10 -28 13 -45 5 -31 78 -323
102 -410 14 -51 44 -173 50 -203 2 -9 4 -17 5 -17 1 0 3 -7 5 -15 1 -8 11 -44
20 -80 9 -36 18 -72 20 -80 2 -8 24 -98 50 -199 26 -101 48 -191 50 -200 2 -9
17 -69 34 -133 17 -65 33 -128 35 -140 3 -13 12 -50 21 -83 9 -33 18 -67 20
-75 2 -8 11 -44 20 -80 9 -36 19 -76 22 -90 2 -14 9 -29 14 -35 7 -7 10 -7 8
0 -3 12 11 86 20 100 3 6 7 19 8 29 2 10 13 55 24 100 12 45 22 88 24 96 2 8
13 51 25 95 11 44 22 87 24 95 2 8 16 62 31 120 15 58 28 112 30 120 2 8 13
53 25 100 12 47 23 92 25 100 2 8 22 87 44 175 23 88 44 170 46 181 3 12 19
75 36 140 17 66 32 128 33 139 1 12 6 26 10 33 4 7 5 12 2 12 -3 0 -1 12 5 28
6 15 12 34 14 42 2 8 13 53 25 100 12 47 23 92 25 100 2 8 22 87 45 175 22 88
42 169 44 181 2 11 6 25 9 31 3 5 9 24 12 41 3 17 12 59 21 94 9 35 18 70 19
78 2 8 4 15 5 15 1 0 3 7 5 15 2 8 13 53 25 100 11 47 22 90 25 97 4 12 59
-10 268 -106 37 -17 72 -31 77 -31 6 0 10 -4 10 -10 0 -5 6 -10 14 -10 12 0
75 -27 221 -95 102 -48 207 -95 210 -95 1 0 45 -20 96 -43 52 -24 110 -50 129
-57 19 -8 37 -17 40 -20 3 -4 24 -14 48 -23 23 -9 79 -35 125 -56 45 -22 94
-43 110 -46 15 -4 27 -11 27 -16 0 -5 4 -9 10 -9 5 0 33 -11 62 -24 29 -13 78
-35 108 -49 71 -31 140 -63 215 -97 33 -15 103 -46 155 -70 52 -24 132 -61
178 -82 45 -21 84 -38 86 -38 2 0 46 -20 98 -43 51 -24 131 -61 178 -81 47
-20 93 -42 103 -47 28 -15 29 -6 4 21 -12 14 -95 122 -185 240 -89 118 -203
269 -254 335 -50 66 -141 185 -202 265 -60 80 -114 147 -118 148 -4 2 -8 9 -8
15 0 7 -14 26 -30 44 -17 18 -30 36 -30 42 0 5 -3 11 -7 13 -8 3 -80 94 -118
148 -35 50 -207 273 -226 294 -11 11 -19 23 -19 26 0 4 -8 16 -17 28 -47 54
-53 63 -53 72 0 6 -3 10 -7 10 -5 0 -33 34 -63 76 -30 42 -59 81 -65 88 -14
16 -53 67 -183 238 -130 170 -133 145 23 220 50 23 92 45 95 48 3 3 102 54
220 114 118 60 301 152 405 206 105 54 296 151 425 216 129 66 237 122 238
127 2 4 12 7 23 7 10 0 19 5 19 10 0 6 9 10 19 10 11 0 21 3 23 8 2 4 77 44
168 90 91 46 235 119 320 162 85 44 160 80 167 80 6 0 13 4 15 9 2 5 56 35
121 66 64 31 119 60 122 64 5 9 -44 11 -305 16 -96 2 -278 6 -405 9 -126 3
-333 8 -459 11 -126 2 -231 7 -234 9 -2 3 -12 1 -22 -4 -10 -5 -20 -6 -24 -3
-3 3 -72 7 -153 9 -150 2 -612 13 -848 19 -71 2 -185 4 -253 4 l-123 1 6 33
c12 68 15 83 19 102 3 11 5 20 6 20 1 0 3 11 5 25 2 14 13 72 25 130 12 58 24
116 26 130 3 14 14 68 25 120 25 117 28 134 33 163 2 12 7 33 10 47 3 14 8 39
11 55 4 17 9 44 12 60 3 17 6 38 7 48 0 9 4 17 9 17 4 0 6 3 3 8 -2 4 2 34 10
67 7 33 16 76 19 95 3 19 7 42 10 50 5 17 13 60 21 105 3 17 10 47 15 68 6 21
12 54 15 74 2 19 6 39 9 43 2 4 7 27 10 51 3 24 9 58 15 74 5 17 11 46 14 66
3 20 8 42 10 50 3 8 8 32 11 54 3 22 10 56 15 76 5 19 12 51 14 70 3 19 5 34
6 34 2 0 5 16 13 55 31 161 120 599 124 610 3 8 7 22 8 30 2 14 14 83 19 105
1 6 5 15 9 21 10 16 -3 25 -17 11 -6 -7 -36 -41 -65 -77 -30 -36 -62 -74 -72
-85 -10 -11 -71 -83 -134 -160 -244 -294 -291 -350 -310 -370 -11 -12 -33 -38
-48 -58 -16 -21 -38 -48 -50 -60 -12 -13 -38 -43 -57 -67 -34 -44 -95 -116
-128 -155 -10 -11 -36 -42 -57 -70 -22 -27 -45 -54 -51 -60 -5 -5 -35 -39 -64
-75 -30 -36 -61 -73 -70 -82 -8 -9 -19 -23 -25 -30 -14 -19 -96 -118 -121
-148 -42 -48 -99 -117 -136 -161 -20 -24 -46 -55 -58 -69 -32 -38 -45 -54
-175 -210 -66 -80 -122 -147 -125 -150 -3 -3 -17 -19 -31 -37 -14 -17 -30 -28
-35 -25 -5 4 -29 32 -54 62 -25 30 -49 60 -55 66 -5 6 -26 30 -45 54 -19 23
-42 50 -50 60 -8 9 -31 36 -50 59 -19 23 -43 52 -53 64 -11 12 -33 39 -50 61
-18 21 -36 43 -42 50 -5 6 -46 54 -90 106 -44 52 -84 100 -90 107 -5 6 -22 27
-37 45 -25 31 -45 55 -145 173 -23 28 -94 113 -158 190 -64 77 -124 149 -133
160 -9 11 -32 38 -50 60 -19 22 -53 63 -77 90 -23 28 -70 84 -104 125 -34 41
-70 84 -79 95 -10 11 -62 74 -117 140 -55 66 -109 131 -121 145 -12 14 -59 70
-105 125 -106 127 -122 144 -115 125z"/>
</g>
</svg>
